<mxfile host="app.diagrams.net" agent="Mozilla/5.0 (Windows NT 10.0; Win64; x64) AppleWebKit/537.36 (KHTML, like Gecko) Chrome/126.0.0.0 Safari/537.36 OPR/112.0.0.0" version="24.7.13">
  <diagram name="Page-1" id="EB1RrWVf7kmo7StfQMgS">
    <mxGraphModel dx="987" dy="561" grid="0" gridSize="10" guides="1" tooltips="1" connect="1" arrows="1" fold="1" page="1" pageScale="1" pageWidth="827" pageHeight="1169" math="0" shadow="0">
      <root>
        <mxCell id="0" />
        <mxCell id="1" parent="0" />
        <mxCell id="-prXrG9tCKA0eA2Kq8v5-3" style="edgeStyle=orthogonalEdgeStyle;rounded=0;orthogonalLoop=1;jettySize=auto;html=1;shape=link;fontStyle=1;labelBorderColor=default;fontSize=17;" edge="1" parent="1" source="-prXrG9tCKA0eA2Kq8v5-1" target="-prXrG9tCKA0eA2Kq8v5-2">
          <mxGeometry relative="1" as="geometry" />
        </mxCell>
        <mxCell id="-prXrG9tCKA0eA2Kq8v5-4" value="interaction&amp;nbsp;" style="edgeLabel;html=1;align=center;verticalAlign=middle;resizable=0;points=[];fontStyle=1;labelBorderColor=default;fontSize=17;" vertex="1" connectable="0" parent="-prXrG9tCKA0eA2Kq8v5-3">
          <mxGeometry x="0.018" y="-3" relative="1" as="geometry">
            <mxPoint as="offset" />
          </mxGeometry>
        </mxCell>
        <mxCell id="-prXrG9tCKA0eA2Kq8v5-1" value="DO" style="shape=actor;whiteSpace=wrap;html=1;verticalAlign=bottom;fontStyle=1;fontColor=#000000;labelBorderColor=default;fontSize=25;" vertex="1" parent="1">
          <mxGeometry x="492" y="203" width="48" height="75" as="geometry" />
        </mxCell>
        <mxCell id="-prXrG9tCKA0eA2Kq8v5-18" style="edgeStyle=orthogonalEdgeStyle;rounded=0;orthogonalLoop=1;jettySize=auto;html=1;entryX=0.75;entryY=0;entryDx=0;entryDy=0;shape=link;fontStyle=1;labelBorderColor=default;fontSize=17;width=31.333333333333336;" edge="1" parent="1" source="-prXrG9tCKA0eA2Kq8v5-2" target="-prXrG9tCKA0eA2Kq8v5-12">
          <mxGeometry relative="1" as="geometry" />
        </mxCell>
        <mxCell id="-prXrG9tCKA0eA2Kq8v5-19" value="Management&amp;nbsp;" style="edgeLabel;html=1;align=center;verticalAlign=middle;resizable=0;points=[];fontStyle=1;labelBorderColor=default;fontSize=17;" vertex="1" connectable="0" parent="-prXrG9tCKA0eA2Kq8v5-18">
          <mxGeometry x="-0.2749" y="3" relative="1" as="geometry">
            <mxPoint y="27" as="offset" />
          </mxGeometry>
        </mxCell>
        <mxCell id="-prXrG9tCKA0eA2Kq8v5-2" value="StorDOP" style="shape=image;verticalLabelPosition=bottom;labelBackgroundColor=default;verticalAlign=top;aspect=fixed;imageAspect=0;image=data:image/png,iVBORw0KGgoAAAANSUhEUgAAAQAAAAC6CAYAAABBVJPBAAAAAXNSR0IArs4c6QAAAARnQU1BAACxjwv8YQUAAAAJcEhZcwAAFiUAABYlAUlSJPAAAE1WSURBVHhe7V0HYBVV1n4z81p6AUIH6SWBUAVFxYKI0iEgJQiWBcVlbatrB1x1LcvyKy4gKh0poYRQRLGhrooQqQk90gmQXl+Z8n9nMi8GSHllAg9yv3CZmTszd87cd+qdWwwMDAwMDAwMDAwMDAwMDAw1AoK2ZfATKIrCp6WlNe7QoYOyb98+u5bNwFAtYArA/2A6efLk5KKiotuaNm26C8qAKQGGagOvbRn8BKdOnbLwPB9tsVieCwoKembixIlh2ikGBt3BFICfASGAVZblCCiBIEEQppw7d27yiBEjgrXTDAy6gikAPwOE3sJxXCjtQwlEGo3G5woKCib27NkzQL2AgUFHMAXgZ8jJyQnCRlUABCiEWggH/hEZGfmX+Ph4OsfAoBuYAvAz5OXlhSEMCNEOVcALiCIlkJGRMbZfv34WLZuBwWcwBeBnMJlMavyvHZYCnkADq9X6Os49OmDAgEAtm4HBJzAF4GdA/B+OjbXk6FLAE2gIT+B1SZIeYUqAQQ8wBeBngPsfiY255OhKwBOoCyXwIpTAw0wJMPgKpgD8C3AAuCi4+Ubt+ArgfKknIMsyCwcYfAJTAH6E3r17CxDwOvACOC3rCuCcuqWGQbPZ/BILBxh8AVMA/gUjffsnK+8OoATqQwm8TEqA9RNg8AZMAfgR4NYHkgegHVaIsgrCZDLVt1qtr0ZERLBwgMFjMAXgR4A1py6/tUqOKoYrDHDB1TAoy/KEuLg45gkwuA2mAPwIEOIQhAClvQDdhathEArk1eLi4kdZOMDgLpgC8CPY7fYIbDwe+FOmYbA+QoJXwsPDJ7BwgMEdMAXgRxAMQl3ewAUaLvXwPQKUQD14Ei+Loji+d+/e5XYoYmBwgSkAPwKsd11szAb3PgJcAVfjIMppBCXwWkBAwCNMCTBUBqYA/AecKIm1sTWVHHqOso2D2teBV4KDg8dNmTKFDSBiKBdMAfgJpk6dahIEoQ6suG6/CQ0gMpvNr507d24cyq+wezFDzQVTAP4DuP4KeQBeAx6AKElSOtJRpJ043uR0OrcVFhZGJicne/x1geHGh5fRJoPeGD16dG2H3fE5z3H3qo68F7+MKIqHIPCvwfU/BOHPjYiIyIcXYMvOzhYTEhKcuMSH5kWGGxFMAfgJBgwY0MRiNifwHH9zxSMBKofdbj9us9nit27d+j8ti4GhUrAQwE8QGBgYqhi4EIPaBFDys5Rt1HMHJpOpsdFoHDJixAgW7zO4BaYA/AQWiyUcDlnInyLPXdLn3x3wPC+Yzeb74QW00rIYGCoFUwB+gtzcApr/P8Al9LIsORDP75Ak6ZCa4SYQ87cURfG+qVOnst+WoUowJvETQNBpEJCV3H4I/1kI8YcOhyMe+bNlWS4uuapqwAuwQAn0P3jwYEMti4GhQjAF4AeA0HNWq6U+x/EmUZR/RXoaIcH0L7744jCE+SecP6Vd6haMRmPn/Pz83tohA0OFYArAD/D9998LsPTw+B2fOhziI0lJ61YnJCQU0LmgoKBD8AB+9aRBEAogAqHE8H79+lU5twBDzQZbHPQaYtWqVUJgYKDlwIEDAXl5uVmBgQHfBQcHnGvdurVw2223cTt37lSGDx/uaNu2La0WdD+S2637uLY2NMquY8eOedSGwFCzwPoBXEXQ5zm73V4bcXpTWPzWZrO5Fbb1YN1DOU4wyrLCYd8uy1IRrsmD5T/ucDhTDQZJDAgIeA2WvTsEOwhJK7FikMdgs9k+R/lPbNmyJU/LZmC4BEwBVDNoIM65c+duKioq6o54vicEuyu2TSCg5KaTZUcYRj/Dn5/9SHi15FQUOV8UxYPYzoTCoGvuQ7oDlzWlBj+6riLAA0jHvRM2bdr0pZbFwHAJWAhQTXjmmWcC6tev3y07O3sSrPALEN6HYMF7QfgbQ4BDsDVhS4BQk8v+Z3NMSR6nftfHvwCe5+qijOTOnTsvyMjI2Ip7t+H4JISfPh3SAKJyf0fcHwQFYG/RosW2o0eP2rVsBoZSMAWgM+DmC82aNYvOzc19GgL4IlJ/CH4jCClZe688LhJwhAO0buA3q1atyk5JSTnXoUOHX2Hht0EJZOKShriGPAq1fNdj6Bjna4GGHYcPH/5DzWRgKAOmAHREfHx8VGFh4QRY6Dch9IMgeBVaZ09Abj5ScH5+/o5jx44dprzU1FTl0KFDmb179/4F+fSVgKYAuwnPvGTsP45DoSiKevTosW3v3r00IIiBoRRMAegACB8H4Yp1OBzTIPyTIfxNIfi6fWIli44UCHc+o1evXt/v2bNH1E4ZkpOTZSiCM/AIfkRYkIusdhB6WmGYhJ8uIS8gMicn56e0tLQzlMHA4AJTAD6CXP4VK1bcDSF7F8L/AFK1zMgLBcAhDAjKyMj49vjx4xe17FLAIyhC6JGMy84gdYDw18JWPYctLTia269fvx9+++03Sc3UDxx93ejevbupU6dOxvr16wtjx45Vtm3bxoYeXwfwKiZlKMHEiRNN58+fHwSh/ycErp2WrbrsLuHTE7DwzqKiold69uw5Y/r06bKWfQlIIcHlvx+7b8AT6VySq34ROAK6xiUlJW3XsjwG7uceffTR4OLi4noIdZoiqwloqo13rY/3p9mM6aXtyEvHs89BYZ2wWCx/WK3Wc0uWLCnCdUwp+BmYAvASiL2NERERw8D4b0EBtCShBwpwLGFfdcH1BJVHSgVhwM8QqrErV648rp26AtTBaPny5f0ggO+bTKZ2Gi2izWab1bZt29dmzJhRqF7oJu69996gOnXqtMX9t0C4e4KO9kgNcCoUW/qaYSTaXO+MrYRnO7Cbh/1T2N+L87+Clp9RP0cSEhLoHIMfgIUAXqJz5859wMzvILWhY2J+MPoaHP8X25ZgeOqGq5uCJQEjoOwICGLqkSNH9qgZ5QACpnTo0CHNbren476eUFBh2FKDQN2LFy/SF4ETJVdWDoQMoc2bN78DFvw5vN/zKCMO79cZSbX4SCT8vIs22iKPttjwJu2aBng+3XMPyrgXnkgTlFkELyaLNUpeezAF4AXi4uLag5nfA2N3JcEnxkci80cK4CMw+UHst8U+jcjT1cvCc8xQAvbbb7/92127dlU4SpC+ErRo0eIYdiXQ0QP3WbENozAiNjb2e5yv0ApTaNO4ceMeJPQQfurD0Bv306KlqqWnVBnKnnddj0QKgb6K9EB4cA/CiMbR0dGZd9xxx0VqyNQuZ7jKYArAQ4wZMybC4XC8CmYeDGYutX4QFsi9c9W6det2Hjp06DiELBV5LZCa4BrdlAAVBQUQlpub++vRo0cr/baP81KvXr2O5efnNwG9HZFULwCewXZ4EOWGEFBukRkZGRNw6XS47PdBWKmzkZ70ExkRpDyhjHrhPQTU1REoJLeHPDPoB6YAPIDWwBYPJn4KTEwr+WpnVNe8CPH5YgiWOvgmJSXlVMeOHXeByamTTktk6fZZEAjBs3Ig3NvKfhIsD7t37y5q3779KdBxK4SuLmihuF3o0qXL9/v27bNpl6kYMGBAW7zf6xD8KbD6TXC9njSXQqs3HuVHIfXCMxu0a9fuIECdmhiuIqrlB76BQZ/XJpEFowNy/12AAigAI2dohypWrFix12KxPA9hXY3zujV8kWDCMvc9f/58ay2rUkCgd4O2RVACNk347svLy7tkvoC+ffvejM3/QfDH43qy+vROtNEdZesNdRmCd3kIee9DwXbSshmuEpgH4Cb69etngWA8AwEagsMrFCeEnKzsomPHjl2iBPbv35/VqlWr38Ho4bi3HZJRO+UTUE44BPQEQpJfq/rmTu0BsLDpELJuoIN6CwbhXq5169bfHz58uAiWvzve7X0oq7txrpQnNGVR7aBn4lktEFq1iImJ2XvgwIHz2imGagbzANxESEgIfU4bjN2KlGYmLFmOtn8JNmzY8AcUxMvYpem9PPoEVx5IMOEF0EpCA3fs2NFYy64USUlJx6GgPsfz8+h+CF0fHPft379/LMp5BwqARhheHYm/DOQRgCZUn/Fe0PRmXFyc+mWFofrBFIAbmDp1KlntgWQ9S3KuBJg4q1GjRhU2ZEEJnA8MDHwbZXwAIczSsr0CCQwBAhOLRL0QqxRcCJgSERGxFQK2l45xXy3cdx+OH4ICuB10XRPhLwsKbYB+CFdeoHEVWjZDNYIpADdw5MiRhhDa+7BbrvuuWbALWVlZlcb5S5Ysyaxfv/67uP5NpHNatscgC06AsIRCgIeOHDmSVhWuEoMGDToJwf8a70Iddag78Vdw+5OxzVcvuMagesQ7kWczIi8vbzx1MdZOMVQTmAJwA3a7nb73l3b1vRwQJsJZCGaVDX2zZs3KCw0NnYN49zWU6VaHnMtBgkIgRQCBvjUnJ+c2NaMKQFFIEK5vQCt10000m81JoOVL7G9FqrQd4WoCSoDmS5gEmnpoWQzVBNYIWAWoU0xxcfFD2L0bSTW9LgvsAgSSerStA9zqZ0+f7mJjY1PA6GfA5DEoz+tFQSEogSS8DRo0+PrEiROXfNYrD9QLD/Q2xn0r169ff2jv3r3F0dHR1GX3TtChtv77A1A3EXgv4a677tq2c+fOKt+LwTswD6AKXLx4MQLC0RnCoXb6uVz4NTiQn63tuwXqD9+uXbvVKPs5SZR2leR6F4bDkt8ZFBTUUzusFAEBAdlwr/+NOPtXLYve6UcIG9Gi90hBXwCyuPvPnz9PipehmsA8gCrQokWLluSOwiJFalnlIcdmsy07evQodb11G9u2bZNTU1OPrli54qBBMrSEjmnEGUo7F6pQ8Ae1ox2VD9AWDOG19+rV67tdu3ZVGobQJ0F4ClmHDx8u7YePPLFVq1bUJnEbynKrPeFqABVBU5oZOnTo8C3rKVg9YB5AFYBA0MCXyoRf7QUIC+xVyz6YXFmXuO4HmZOfA7NvlZVLg/GqhN8F0HhPZmZmV+3QY8ArSIVXsFiSJL8SNCjfW4uKimK0QwadwRRAFYCA0ucomm6rMhQGBgZ6/X0fQq4kJib+Jhukp2RFWi1Jose9BqEAGkMRjYiPjw/SsjwCvBER75AABfAjvAkt1y9Q32Qy3c3WOqwesEqtGrRmn6lkt0LkQPh8/pSWlJR0CJ7Ei9hdivJsBoXsf9UeAMUMUADUm64fvACvu9MmJCScRBnz8OwrZhy6VgA99F63ImSp1Atj8A5MAVQOzmw209RaVbWVZObk5Pjcw4+wdOnSP2CJp8qyYZEiK3DHq1YALottNBpvAq2j4uLivJ6WLDg4eCs2m0qOrj3wPpTaUDdhLYtBRzAFUAXAfFVZf8LF2rVr6xY7L1u27LQoOl4VRekDRZZzSAjcAbwAHgqrvyiKXnsBeDZ9EpyDUMBvlhQTBKE2EuseXA1gCqAKQBgqDYi18xk33XRTpcNyPcXGjRszDLz8LtxxShe07EpBpEBZ0Dx9I2hhEi3bY0RFRe3CMxegvCIt65oCtFicTmdz1g6gP1iFVgEIQaWCDeaEwRUvTJs2Tddv6Hgut379+jxroPVjPOMTZFXZMEieAiwlhSv909LSSicE9RTz5s1zwpNYjudu07KuKah9A2icl5d3yZoHDL6DKYDKAQ9czkeqbGC8CMG7gORT0zkJ/JAhQ9oNGzbsQcTwk4cOHfpy//793ykoKHgL526m89qlVcJoNLaAxRw5ceLEqr5eVAhqEMQzZ+HVT2Or5V47oH6jLBaLVTtk0AlMAVQBMH82mK9C645zdljLcocBewJSILB0t2L7XzxzJvbfsFqtz5tMpicg0Pci3522CBVkLqkt4OzZs7Fallew2WzfwrtZhl1dwxtPQQoIYU3A0aNHdZlLgeFPMAVQBSCI1EOusgY+ipN9Gt7rAp71EzanIexm7FfW9bhK4L7mEJxR48eP99pqbtmyxQ4y5qOc0m7DVxuuOgANvN1uZ/yqM7zjrusMYB4OMXrAqVOnaBadWoglaSFNalmmhjIJ7nIRLExOnTp1LhYVFVGLfv6HH35I/fuVgQMHdoQVptl+aV6/KwALecThcAzevHnzAS3La9Ccg8XFxa/A1X0Nz/bZ2oE2mjT0ocTERFIsXoHqDnSNxPZDHEaRMF4jfBkZGRk/b968S2ZcYvANN6wCIGGCGxwF4W4LoacGsY4Q8ubYEhOHIFF8TNNcU5xPLm4xtllIp6AYjmN7GNvfcX8mtrPhhtOMOVcAQrYbafDGjRtPalkEEhoT4mjqb+9RAP3AAw90At1L8LwYCJ3XHgAB7yCD/jmNGzd+cfbs2QVatscYO3ZsaEFBAS19NpE8Ey37qgLPXtO2bdtHpk+fnqdlMeiAG24w0COPPBLSpEkTmgf/MVjmvyNrEtIAHHcF7zZFoqG3pACsSDThBC3bHYD8ECSapbYVtt2Qdzfk537s02y6rXAcgmuvAPIPBQYGLtu/f7/6yYwa3po1a3Y/7h3VpUuXI/v27fOIYfv165cNROG5tyD59PuANloYtC68mt8PHDiQpmV7DLyDPSYmhlb4IZrqa9lXFVDe38MT21wNaxvWaNwwMdXkyZODR44c2ScrK2smBHYZGP9FbG+HDNBU2JfMLINjbe9PkLUtA5q83gwr3JAsP66vkOkhFBfy8/NV4R83blzrjIyM11HWbBxOQcx6ycy77mDWrFnUqLgWZajLgPsK0N8EijC+T58+Po31hwLYj3f9CIKYVV79VSfwXPKkjlNYVpLDoBduBAXADRs2rO3Zs2f/CXf3Uwjuw0iNwaTV7t2Q0sAz08lSDxw4cDAs7Vw8l2YOprUAwnHufoQCHgseyktB2evB+D5ZO6IPdNBsm/2QemnZXoEWIw0ODl6HMteBrqu6kg9eIR9KMRXba/898gbDdR0CkLvdqFGjYWCMf8HaD8U2EsKjmifsuwRAvba6gPIvwCp2BoO+gGd3xLFap9in59M6fr9WtApPRUhNTZXatGlDlvYulOP1bEGud0cZtHKvFSHJt65QxRvQQiKgi/oHdEeZtDjoVQGedxjPm52SkuLRpCsMVeO69QDgbtdKT09/BowxA8J/C5hdXbeuLC4/1htUPp7dz2Kx/PVygSAjiTzyBAbAC/B4ckuyeGD89Ui6xLyg5a7i4uJ+KM+nSunUqRPNKkwzG1+VVXxAL6XtVqv1jJbFoCOuSwUwduzYRnl5ea9B+F5AogU4vYJLQfiiKHAvrZB7hSdFZSLxJpOpr91ub6Zluw2aMgxCRisKHSIh8BWop0iU9dDw4cObaFlegUIBYD3CmxXYVnuDHN6drP7WRYsWsXkBqwHXnQIYM2ZMU8Tab4KhJyGFatleAa57LjY5eghYRYASaE0xOJ7hsZaBZ7EX961C8rnxixQS6qsXQpIR2joHXiMpKSk/NDR0NuhyaxJUXwAl8xvq4WftkEFnXFcK4OGHH64DN/ZFMPNouLS+9gun7/80A84r2Pdqem53ADoteA6FAR7HzOQFQHkkQNCoUVDL9R5QAIEoL37nzp1ttSyvsXTp0gPwbv6DdzurZekOlJ1H7798+XKv11BgqBzXjQKg7/tZWVl/w248hMqnBSPIGoK5aBDPvo4dO36K7TQIWKVLbfsC0NsViut27dAjgDYKAVZht3QST18AoY1GmfG+dBEmoAwlICBgE+rxM9Bn17J9BrXzuxJ+pJ8DAwO30LNKzjLojetCAdA48JycnCEQJHL7qUXbJ2jWlPr3n0JM64iIiKB+A88iUcMbndMFrrLAwLQe/kAIXbia4QHgBcBJkVZjd3dJjvcgekCLEbSMys/Pd2sxkcpAcTkUwFzQtxll6yqkKDNdEpXZixcvZo1/1Yjr4jNgZGQkzcv/DhhXt2mhwLgZZrN5Ia3jn5ycLMfExBwB0x2FkmmP07r0dgPNpVs8LwJC5/EnQcKbb76Zu3//flJ81CnJ7VGBl8NFD94xzOl0Gnv06LGNFgZRM73EoUOH8tu3b38a79cD5fq8nh9RSLrEZrd/Kcriqg4dOtTHb9MuNja2I/ZbtmnTpiGeF9qtWzcL9qXU1FRdPKOaCr/3AKgjDRiXPrP5NLS1HGRBCEpH8ZGlRTjwFVzkZ8HMP+tt0RDLNoQCe3DAgAEej9GnJb1A13ooqB1aVql34SnoPtQndQ66LzMz8wFkef8JRAMEczvK+w/KznQpGR+hwE2JthhN1LErEeWudDgci+12+1Kco68P6woLC9fi91swZMiQV1Cn94waNaruqlWrrut+LdcCfl9h0dHRg8EA1LvOq+muKwKEKQVC9TksSOkgGVpnH5b2BBg6Fedb4plNSFi00z5BK6ceGHr7wYMHPW50BF05K1asoCHCtISXOjOON6S57gEdtKRY3VatWn0Hr8SnDja0wAmNe4CARuCwO57hNV8RdbifumLX5o1CU+xGIgUj0diNANrHORrN2QBb8tbuxPYB/F63HThwIKpr167Z8Ayy8bvqqsBvVPi1B/D4449HgUnH4sf2ujdcRYDFughXstxecStXrtwO5fAcFM+XSLp96yamFUVxiDcNcLiXGt02YvsjHYPp1XxfgHfshnoYO3XqVJ9X4V26dGkhyqLJTL7WsnwC3hPKoGoFh3qg+cLqIN0DXnkDnsFiZD8Jj+Cq9VS8nuHXCuDixYt3gqFoQI+Wow9QpgKLcfrcuXPlxr8kbHAnf8fus0jkguoSZ4JJeQhJ37y8PLJcHgMewHkokAWgPQs0abneA/TQxCMP7dmz5xYtyyesXr36D5T3Lwjifi3rqgLPJi+hG+rmXwgZPh02bNh9eii3Gxl+qwBohRv8kIPwo5JbqRtImaBcEdYv/eOPP650qqu1a9cexLUv4J7PwdS69ERDWS0hwANp1WEtyyMEBQV9iw15Jj5rACoC9DTHuz02evRoXbysBx988Gf8Zu+jTK8WF6HuUmWTp6DfFwgEDffj/eZAuT0B6MpDNxL8VgHA0rXG5taSI/2gMT11sHFrIk8ogbRatWq9gms/BVP7PPe/ZnUHX7hwodwZhqrC559/TvH6p3gPj78mlAfQQngAXskDKNMLkbsU1GBptVrX4Pebr5fS9BZ4r2ZIU9PT018ZOnSoz18obkT4rQKAlaRJPWgwjZajH1BmodPpdLt3GTyFM2azeTp250JIvJ6RxvUu2EaTF+DtPPcdO3akrxTUGq5XaBKJ9PjAgQN1WXyD2gOwoSnEEkHjNZ3AA3VNDYZPIr3y5JNP0jJvDGXgl18BaFGLnJycx/CjddeydAHKU7cQnnMBAQEL9u7de17NcAM0jLZbt247bTYbMXQsyvJ64Q1YJQGCEQYv4NuDBw963AJPC3m2bt2aFFgvlOVznwWtXuohOQcMGPC/X375xWfFQv0DYmJijuE9O4JGnwYgeQt6Ly0Z8Zu3y8/PL+zRo0cywoJrOsuxP8EvPQAIGcWjXjWUVQYwgboFQ2YiBPB4Jt8lS5ZkgraZ8B5otR6fZgKGxe1AXsCIESO8UsKdO3c+iPuXgA6fwxIC6DEhjUxLS7tHy/IZq1at2gPhexv1Xm1jLdwFfnMaODYJhsXjWZpuZPilAkA82hBM4/Uw38pAFgGCcwYM4dVc/lu2bMmzWCwf4n4aP+D1QBgIG33THgGF4vFQYQINywUNa/Au6oy/9F6+AjQ1Rnl/QyjgFU2XAzQpmZmZX6HMd6CorvmKw3i/ZvjN/vrAAw+Qt8MA+KUCALOQ8Ps0h11FIC8A1v8cXEGvG6hWr15dHBQU9AkYaipoLTsbsEfA/Z0gHPd72xaQmJhIq/ZQY1sGkpbrG8xmM40RmDBlyhRdluGicCUyMnIZlMEc0Oj1zMR6AXV+JxT4/dphjYdfKgAwdRhStXy/BRPSYn4nJk2a5FOcSwNhlHYKdTp5SZGVY5zCGzgPqxPMGIg06qeffrpJy/IIZGEbNmxInwQ30b6W7SssUJATzpw5o1soMH/+fJo/4CNUPQ26uqZ991HfwYosj0ToxbwAwC8VAATUCve2umizgwlPafs+IWF6ggMu7iqDbHhBluT90FzaGfdhMpm6wCL1B01e+fBz5szJfi4lJeetHTukN5OTDXef9X14PoSkCYT1b3FxcbqEAoQFCxZcxDu+A49nIylhLfuagOeFbqLdfrN2WKPhlwoAcTG12voe1JaPYgid263/VYFc3JjYmEQQ+1dJkX/Tst0G9JwV9Dw4aNAgr7yAMw0bvti8sPCpEFE0hjochiEnThj6nT6tnfUeoKu3w+F42Nd5A8pi/fr1x4ODg6fjt/V6pSI9gN8qEi/Yi/US9FMFAOarLuGn8CK3uLjYrfX2KwLF7EhW6mFGU5Tt3bu3gyIoMoIArzrn4H27IA1DmR5P1YWKGqHtlqJThm+rZyGcUBUTQoGH8/Pz79aydcHSpUvpy8A0OAH7tKyrCmIsPJ+Hs9Y9ZWdKnZLcmgu/VABWq5XiRL1i2kuAH5+W//J6NV+amejYkeOPHT109KPsrOxFcGnXwGVORLmrUZuDtcs8Au6nPgUjU1JSvJnv4IoBTQ5BUIXYW0BJqluU0Qjv91R8fLxuoQChQ4cO2/AbvIbnHNOyrhrozahuUDvNFcHRqCS35sJfPYBC/EjV1YMsMyAgwOtv57CKvN1WdJfD6XxUEuWBkiR3BSOT+05dTb1uOcc7d4RnMtiLfgFrtW0p9kRGlgqxrwBddxQWFk4EXT7PxOQCfcKMioraDMX3Dui8Jp8HOZ6LcErSNemg5E/wSwUA4c9FqpZloMBw1ErmtQKYN29eriiKa2VZoRmFqUDN2irqn7eAMFBbwGgIG42BcBsNzpyZic04JJo59+cDISFvfVWvni6Wld6L6MLuBIfDMcjbz5XlAfXoDA8P/xwK9S38Jld1xV/6lXiOD5Q5rnFJTs2FXyoAp9N5HkyRrx3qCQUW7Ux0dLRPk1iKiviDJDt/UzgZUqJlYsed8esVgSw2aIuGEhjqaVsAlMBSpF6U5nbo8Abc60UoT7eJOqEE6kEZPLt//35dZ2WCEqBl2ecZZMO/IZU5pEzLotqagVEulLWgSFIdPZXa9Qi/fPnQ0NCzYGDdp4JGmU4wcjq5oFqWV0hKSroAJloL5qVBL7qArC0UAA0RHn7gwAGvp+2mqcShRJaCNnXiEL0AJdAZZT4dFxena8MZdarijfxcWZJnKfKlA62qcy5gGiEAfgj4/vvvmQLwN4SFhV3Aj6PrDL0ailBmaR8AsrSjRo3qAabuoGW5BQirEhwc/CW2NGmIroASiLHb7aN86YlHE3OAtlkQ2LOkWPQAyqGZd4Yi/NGtl6ALUFq51kDrTFh86ixU2luwGn7/P4FqQV37/ZR41Q2/VAAzZ86kGP13MIDevcZyzGaz6lnQcuKwtOPA0J+B6Z6kY/UKN9GiRYsTiF/X4l5dBuO4mB1CRt+mh/3xxx8d1QwvUadOna9B2wooAT2nNAtBmnzy5Mm+WpZuoHkOIJAzQO4cWZIKSG3xOimv8kDVrSicLSoqqhq1jP/DbzVg27ZtieEeQNJtTACY64jT6VzYtWvXsPz8/H9A6J5DdjPkh+Xm5m47dOiQ293oaAJRlHMRCoSW3W5EAgxaS056gbL3Yr8WyqWVeH84fPiwV0owOTnZ2bRp05NQKN2RdPncRTQi0doGjWJiYn5OTU3VdYFQlFfcpUuXXU673YognYYRV19HHQUBhyJvWZeYuE3LqZHw2/inoKDgECxYsnaoC8BQtLnd4XDQwBRaZSiKmBr5N2Hb19MGoUWLFqVhsxLJTuXoBdBDi4oOR/JpTf8vv/zyEOj6EMrEp45PLqDOXErgVuy/NHbsWF3WTyiL5cuXZ4SEhb0DCaV2Ad3aWMqBTZE537tMXufwWwXw9ddf06dAWnpKNyaAXFEr+79hre9D2eqcfGS5Sd5gJe+HB+DRABGUoeC+DShjj5alG1BuQ3gmD40ZM8br+eyIvsaNG1MdrgSNPk+CgfJc9SVgP664uHgi4PE6B1WB5l3gjcb3JEn+BHVQLUoA5j/fKBi9Hsl5o8BvFQABQvANmNfnJbHKgJiVrP4V7408anzzeA5ChCo0Ey6NctOVUUnYUG7frKwsn0blzZo1ixbYnA0vYDuVqRdQVhDSExcvZsVVx6e01atXXzSajW9j90PUbUmfC51A9QC+OikaRKYAtK1fIjo6+gR+rJV6egEVAc+h2HbQlClTPFpynD4pBgYGJuH+0lV79AIUYBQ8llFDhgzxaS47mt0Yyu3/nE5nupalCzhOqMvz3PPwnHSdus0FVQkYje/CC/g3eMCnxUvKgrwYpL1hYWE1ftVhv1YAJFxggPX48at9HXoChPj2M2fOdNIO3cbChQtJUX0OptK18xI8AEq3OBwOn74IEGrXrv0FBGkJaNS7h2W03e78C0KBapnAhT4R4vf/ALRTt2Fd2jJQFnlF27TJS2s0/FoBEMAAJ8EA1Gin2xDeStAYrvIgT4fAQvipLSAJDKprizLKIwVQF+/eVcvyGhqzz4My+aEkpwSgXdvzDrifCrgXoYrHitNdJCUl5detW/cjPOoVCK/Py7ijPvfBa7umQ5L9BX6vAAj4wWj56QVIura2Xw4IG+RYuB/M7FF/fAKt2oPNQtDo02Shl4MIQhjQrHfv3h4PFb4cGzZsOAr6/oP6LO0MRUrGe7ju5eqJojooqtp+HOo2HBkZSaMvX0BKoTxveAHvXojfeTn149CyajSuCwWwcePGIrhs5AV8gVStHTfAVK3AIF7N0xcREfEd6NuqHeoG0BQaEBCgS5+NZs2afet0Oql1XbdFOwSBp8VOmk+bNs3rpcvdAQ0g6ty5My3V9izSb0ge8QJ+G8J67Cb42h38RsF10xUyNTU1Nzo6+jB+c5qTv9pGcaFsqpPA7Ozsr1JSUjxaBGTXrl3FsbGxhWCyu1BOiJbtM4jZGzRosDE5Odlnpv3tt9+ktm3bHsVucwhtO9Dpg9VW+wSoe5IkHzpz5tRmbzsuuQtaifjAgQNpCAt2Q5HR7NG0gnOV3hGus+G6jXCopq9du1aXVZVuBFwXHoALa9as2QXheglJ1w5ClwOM0lIsWZrMY9SqVetHMBtZKV0sDMpRQMspsn5als+A8Jy1WCw0VfdOLasUeJy25w6oNZ1eU0b4pNjhXVyVVYDw+yjLli2jry5Pgt738B5kGP7s54BXoIFElGRJciiSfADXvBsWFvbM6tWrU7WrGIDrSgEQ1q1b94PVan0WP+gvJBxatq5AsUHYeNXLbfbs2QWwrIuwq8uYfLxnnsPhUGNePbFy5cpdeM8ZKP+SlnWXRfcEKENCOvXhhx9Wq/W/HLDkJ0JDQ2k14jGooxfhESyDsvxBlMQdkij9JDqdy6EAXuCNwphGjRr9a/78+SzuvwzXnQLQtP+PZrP5SfzYSfjxq2XiEF8QGRlJnspyJJ8FAmXsR/yvu8dD9Wg0Gjdo7QE+DWhCWZlQejuxvepxNU3PnpiYmLxhw4YZ4eHhjyFrGN5noENyDg2NCH8kMSnpg4SEhN2zZs3SbX6EGwnV1mp7NTBs2LCmsGJTOI4fBwasYPVXz50EMNB5CN7Y9evXf6NleYxBgwa1Qby5AMnrtfdBRyHe7/XY2NgPp0+fXi3r2cXFxVGX4xkQ3hGoQ68MAupqY7169f4C70fXjkYM1Y/rzgMoC3IB69evP02SxEmSpHyDgKCoRKdRolfzTr+BoVMgCz7Fip07dz6CcubAS/Gq8woEnxYw+QKCuaq6hJ+AmPgMPAHqZONxZyvQRnVFvekWMuG/PnFdewBlMXTo2EYcZx8CuYnjeaELXi2EZhdXFPfbpSAElHLsdvtzGzduXAAG96mNgeYYuHDhArVXPAeFUmkXYxImej4B1yN0lb7H7nPwQvQcC1Ehhg4dei+ePxMeSzTR4g5AZjZCiPctFsv/QZHoMi8Cw9XFDTMjysGD+/JiYqYlK8rRbyXJeRCyK4KhSegCwc9ueTpg6CwI3pzQ0ND5cI19ZugdO3Y4unfvvgcKxYGy21SlBAjk9iMlBgYGTl2zZo3uowwJNLagU6dO/du0adM0JiYmPTU11fHGG2+cSElJ+QN11hIKoAFShVqAFBVoPIn0H7zTx+vWrbvma/4xeIcbxgMoCzAoN3LkyFCbzdYO7u3NPMffDH6ONSh8XcUgB2PfBB6GUlDn8YWLoBTIsmG3ooifBgcHb1y2bJlH3/+rApRJgMPh6AXr+hCefRfoq4WtGYnHPjWc2Un5YHsAaS3y10OodB+ootFBE4RMguDej2fTMmmJsOLzGzRosBvhlLRnzx5SVPG4HN6U0hS0qMu0gT5yT5zYXkT6H9L8Vq1a/ajN3lQpqFPV9u3bTTk5OXxISAgfFRWlGh7QwkHRcfiNaP4DIz0HtHBQLBzCH46O6To6pi0BtCugyYbn5y9cuNCB/ave8Hgj4YZUAJeDxqxLRVKDYkdxY1mRmxQ77HV4Ax8gKZIJdj/bZAo4yPPWXQkJi6o1jqVFRQoLCzuA8dtAuKgDSwiYOw9MfQpCcASu9OEWLVpk6N1LjdYawLPaQbjG4PBBPI8W+lB/e9BBn/AOQdYWIy2nsReoL1NeXl5r5HfCPU1xGS3WSh7VGdC4H7Tuoym86H53MH78+JsQCj2O8mvj2aT4LEgk36QISMipIw8tl05LwpFSJIWjbpGP7D+9EeTRALFcbGkY9hFk7Y2MjNw3b968dFzmU8hWE1EjFIAGrl+/fiGw8NRDz0wWB0zGOZ28ArsDxrGAGe0C3HXKN0EwTWAwM5iNrjWZzWYLmI6mqBKQR+cFJCpXgrXKgKCctlqtMHI5mVu3biWrWKkQk1WE1RXOnj0rVWe31FGjRjUAnepknhCQ0mm2SKbwPqVbvHMxtj/ieB6E9EsoAtWtRx43bdo0ITo6WoFX5VVHn/j4+B4FBQW0glJDep63cNHr2keiWZ6zkPYiaw3ecxM8pzN0Wr2IoUrUGAVA6/idOXP2LYHnaf17Em4eTq36/uAp1drwJbNQCvB2oQwoqW0kyOXIgpI1on2aTlpNOCYQs5FLSmFDNgTtCBhxN5h9O5TNgWHDhp33VnB8AaxueGZm5j1QVn8BLb1AtjrpKQkO9tVd+g+4hAfwHhlIG7H7WWxs7E4oJ5/HDEyYMKE7PApSAI3p+dUBlEszPv+KNDcoKGgzG+rrHi758W9kTJ48uR7c0NXY9WmePXcAJhShBGi1G+rB9w0EbjME8QCsarV3WoK7b8azu4OG8TgcCKErneYMeST8CgT8FNIX0Hh0PBCpgXaJClyH03Ia0go4P0th/Y/44qUg9OkGz2gNnletS3HR+yFRGDc3Kipqzty5c3WZP+BGBlm4GoFbbrklCPH3SDBIta8HB4EiByMYqTkOb0e6E55B7Xbt2p198MEHs2lGYfVCHUFxftu2bVvi/Z5AehU03APhDyWhIODY9ZVjHZTRtJCQkCU4/5XD4diFc9T1mdxzdb5/bOkFIrHpiftvTk9P51q1anXm8OHDXllVeBL1bDYbdTTyen5DdwB6KZGn0xW/dTjqY9fBgwfZF4pKUGMUQOfOnYOKiorisOvVOvzuggSOGNEF7EPOBOqleCvO9Tp37pzYu3fvtOTkZF26pqJM7vjx4/XA8GMgtW8gRhmJZ9YlDUTniRZcUwzBpxV5p5vN5tnIFlAXjzscYleLxbzNarUmOJ3Ow8ivDfLr4h51dB3RjkQjL+9C6ghPoKBPnz7pv/32m0e0o+6j7Hb7CJQVqWVVC1x1j0SKrCOOTT169Phtz549ug19vtFQYxRAly5dAoqLi4dhl6xytYEYsDxAHgUk+r5+G4S1FizqIVhUr5cpJ9DXjUWLlvWBcL0mCMaJHM+1MPD4TUEC0aFI9GdIhY6YxQvc24iN/7AX24fj7Bu4Pg6K6Q4Iyc04XxwcHLSZ5wM3y7KYJcsSrSNAHoD6MtiYcS2NjrwTrnyTmJiYzNtuu+28u8OTO3bsWBuexnCUU63r8WvkqsA+KbG2qJuL8Lp20TDikjMMZVFjFECnTp2scEOHgDFaalnXBHh+IFIX7DaHRT2Qmpp6AfF1yUk3Qe5+mzZtovE+f4cA/4PnuZsR2ltL2J/+V939dNEpLRY4/vWIOuHf2mxiT9kpvgl/5DFoojBJlpMkSU6Fs0+eyQMQlGhFcRyNiAhPhKIkb4EKok+VFB6owD59QSHa74AHEUYhzciRI3OqCmnat28fDg9jOBQgLTKq5VY/8KwAbJpmZGTsQD3T1wGGy1BjFEDPnj2tYNqh2G1VknP14XJRAXKtW8Mtj96wYcORffv2lU7RVRXGjh3bCML0CHanQc4HwUkPR4mlUiVLch4s+jdQCG8ESAFLRJOhub2o+B947PM43QJE/Apr/qYlwDzDbrdtMJutpxRFqgvSeqOYAUVFtsaCwO+tVavWctBH4+jDQTeFBa7PhwSapfg25PdIT0/ne/XqdXrXrl0Vtg+0bt2aZlwmBUAeUElmNcNV19jWxnsot9566zbQ6HcjR681alIIYIECGAymaKNlVQ3YNZVfL7NvxFhl/1T5o6+CVfC2xpAl9wMQiKawvM0gIMkIBy5ql5WLQYMGhcTGxt4HV3oqbn0U95J15kuW0EW5suwQRXEHpxjfDwkNnCEIgXkOzv4kSHodocGtimw4qsjS+4JZeHdlwsr/DR8+3HHo0CF7XNzwvaiX75xO8SxeAm4+1xcKoTe8AIPJZPoSYUMinnkaQkRKoHRNBWwppKH2gd7wRFqDtsy77rrrLM04ROfLAiFAMJTWMCgej2Zyoroi4Fnq1hO47sGWEAUafzpw4IDbiramoMYoADCoGUw4CLvtSnIqhzqjDLalAkt5avpT6FVZUK/T/lSmu0xbXIaSa0pAnAk0hXDVgTu9HQJZbhfkvn37tqSWe9DyPISoM+4pXTMPgi0hHTPIyhy7w/5Po0nYZy8WB8EVeBOkDMEVhVAMnxpE5XVjgHFzQkJCTkpKSjOEEONbtWrbMTs76/Tnn39+OiYmeoeiGH80GCSaOqsT0gO472YoggwogSTU3Zd4Pll5ah8II8Lp+dhQB6l2uPbOrKys0KZNm6ampaVd4g20aNGCWuZJAVCvwkqBushFWZuQvkO5NOnL/yjhOT9jmww6qPcfTb8eijx3Z2+mRU3PIVz5kbUFXIoaowBatmxpBgMNxG50SU6lgEGV8hVJzgaHF+C+PEVWchUDkiTnSLKBuqLmg1kdSCKYi4SB3HpsK1cAl4PugWDQ5zuua9eu2xEOXNHCjhg6DgrgZVxHc++XahDE8GdlUVluQJxfv0HdzU6bs5MsG6bi2ickWQqXRXGjZOBeD48IWbQiYcXZ7t27hzVv2nwAdNobHC88ZjQK94qi3DE6uqPNYjGdXrly+ck+fe6h+H8nrH4IaLodVn4gvJQWIPNgREREAgSTBJE6TjVGnrosmPYO4bgvBvXx27Fjx0hISwH6SQFQo2OVCgBlHEHZTyI0WgyF+NXBgwcpfQ3r/TUE+MuTJ09uslqtm0HHETyW6Kqr3VohiD5slLy8vC9Qv+yzYBmo7lxNgMVioUEkbml/MGGOw26fVuywxxXZiuPMgiXOZDXHcQofFxwUOjw0KHg4Yui4grz8Ubn5+Q8VFRU+nZ9fONdmtyVDAIq0YtwCmF21otgdm5OTA/dbKRVwFyDQ1He+VFnjGhuEcrPN5pwUFFLvZU6UxPNnL76NOz9D/N4POmmHrIhTAoID/rp+/Zpvzp8/rwwfPPz2vNy8mbxR+C8E8R4ItgliEWg08v3h8s8tLCz6z/DhoyimVxYvXvxdYGDgk7hmMupiN7Z4d25xbm7uyzjOQF0+h/f8K/a/BTnq+9J74DqikxreLgFoJa0o0TVugIfHQb8TXezaqok6I23ZssVOcxh06tRpMZQAzQ/p7tRrzeA9VKmAahquYLYbFTQSDpt5SDTSrVKAuc9INmlI0hdJV0yaWRGoBx4EuKEgmO+yWs3jeF7oyfPkoroao4iXK65uEg4wKK2F+MjGjRsvWbNu6NC4KRynzER5AoUmDqfjJ4fT+SjKtRuN5nGI1cchAGkOj+CoYpAXm0zCslWrVp2CxeQR+7blOONYCPpokFHSblAK1TCqe7JMBCppePcVnINbEntz7FEInDJs2DDcI4ziFIVGMrYAnQehoz4xWYR1UCS8rdA2AOU8gqI64RyiEPuEjV9sXKMWquHee++NCggI+NxsNle5ziGE+mBoaGgclFCV8yD269fPYjZbp0NB/p3qxvUu5QH1mgvF9ejy5csvoa2mo8Z4AAQwgbt98gXEy2qvOHdB3Xy3bt36x5YtmxZYLOaHwcjv43HqkN4Sy1e5riUlAQG5Bcz8AK6v9GJY4ywwc6ZJsMCNN76O68OhED4xmfmHYmM7vE8j+uLj4+shfp8kCMaFcPUhIOoS6Jf93n8KDAQIl/Atcf0LvFlYlLo/9VGUUYdmXYqJaT8jwBwQj/r7BHfUwbXvOe3ifEkydK/boO5SzmgYh7JmIP0BWq7wsqAo6EFu1T3VA55TeWVpIG+A5w2/4Ll5Zd+lPKBcC+qqWvshXI+oMQoAbqUnTMg5HO4xYTlQVq5cebxevah3YNFfhkX9AzztLiimHjZ69OgKZyQuYXOKZjjBZDLTsmGKzWb/T6NG9V+A1d+RkpJiGgoUFto+hXV8x2g0dYMAmqoSEBcg3GbBKPREsf8uLCj+eHD/YfdlZWUJS1Ys2XVT85tehKM/XhIlWgz1VtHh/Pj8ufPv8RJvrVu/7lu80fKYwWm4YhIT1APIlK9QDOUBCoRCHbfbpmw2MRNFa1PBVQoa6enRkm81ATVGAVAcDKZ1e249Mofarlegpazq16+/DArgNWqsw7O1M5UD13WF91DhMuWXlKJSqDihAA7RdOR0hPvDoBsGQOipAY867mgeSNWg6+hrBgH3hvIcdztUB/U0VMuZMWNG4dq1q76WDOITuPgp+BNpcCoelnll1dnT6U9Bxi5u/HrjFWv3uTwAd+gA/YKmBNxCQIApALS6syIRjXByryJqEGqMAggJCVEgjG4pADAg1YvbTFgRaDEPh8Ox2m53zhVF2a0pxsDMEWDUe5555pkrGtOugEIuPSRG4NW++w8//DC5uOZatSJehb55Cq9Li5TQrD/IdkMB4RK6FgqoAMH8Fyj4idpRtd/NOpNlGTt2rDqdGbwMITExMTe6Y/Si0LCQeNz0Bpx+2WQyvmZQHJ8++OCDV6xkDAVC1l8iJVhCS6WgtRDdqnuURS/VFjS4s6S7hHLZEOHLUGMUQFpaGvilzOoxlQCMSozlswIgUJwaGGhdJMvST+4IIRQABwXQ7cSJE5UsTPKnEGlCoAJkd4ai+Sg9/eKdZrMxMSgocDzc739CERxEmaoLXpkAypLshOAn24rtLxk45TFRtH8LF3+AyIsf5Gbmqh2okpI29xgyZMiwo0ePBn/22WdHI2uH/xvqJ14UpU8kp9ioILeghVpYGRQUFNBD1fCrpGorBX1idKvuhw8f3kSSDANQZpWuPcosttlsuk+zdr2jxiiA4OBgcgHdagMAs9DUILooAAI1ykH8EA6IuVpWhdAEtHlxcXGFPRZVUYbDT/YUzF/q2pLggO7bjEZhTkFB4X/z8vJuslhMH8BDGINn0xTl5c6WQ/UCRXEE3sp7sNbxwWFNF8oOOUaRDHONJtMsPOkWW7FNrQ9RdLY1csZZiqQ8PnXqVCO8HBHvlyyYuBdkSXrMzJmvaANo2LChDNooaTmVA/RUqSX69+/fEDQ/D8+jd4lSqbLs89Qeo+0zaKgxCoAGrIBR3P0KAI6SdFMAhJCQQJrm2621BuAFUE+7Mh2WyMrjn2rsaRIPXmtQow3Jleiy7jiQRQh8mNlsHiXw5gX2YifNDUBhwEuiaPiL0y6ulkU5V+1BTO6+03nBbrMv4CTpEQjq21arlS8qOjHVaDV+YrIYh/MCFyzzsuhQHJoFp++FSoRiENpBwYQOHjx4wKBBce2jo6Pt6zet/zFxS+IV3+V79epFfRk0misH6KRBW40RSjQeM2ZMc2xbjB49utX48ePbxsfHx+D4VjxzgiAIH8Glfxj6z1JSD5UDSiUFYeBp7ZBBQ41RABrcYkIAMnP5JzPfAA/kLCzQdrKClCoDFIAAa92sd+/eamxPQl6yLYmhScyLhWI1j6w/kksBEN2kKeiQMwp8U6NJeBZhwVJO5sYFB1t/D4sIfUJ0is86HY4fnaK4xe5wTA6PCH+OM5mOnT19+jG4PkssFstTEFiaOIU0DhWM0yXtbBSiqLoIAQO8BTPHCQ8LgrRo9+7df7n77oHl9sqjLzAgy626x3MjUE8IW6S1UARr8Yw12K6hKcWKiorWwEtZhbJmgZ7BUAJqT8SqgLJoyrZv9J7t+UZAjVEAcFdJKtxtBKSpqXX1AKhBEIy7B8muymglICEHczfErhrbiqKqMUqkGvciQKF1/dSJzcsC59S5Del+7XKDwAsmk2DsDFf+veKC4s+yM7Jv54zcWqMsjYYQPRQREfEtBKyfQZIXms2Wd0xGUxcIeWmreklZqhC5nuaaF1Gx240K/BGaK4A+Nc4IDOQ/7NOn/xWjLRHOeOJ90fTgrVF8N2xj8Z6xKLsDUnvKp3pBHk3tTjRot1QMugZpD9LXWhZDGdQYBTBt2jQD3Ftiwiq5hpgL0L1uIEQ0F1+VXYXxbNUSIqmdkWTZeQaGvnS0IIX9sISwqCUkqlYZgECrbQJ0fwnA/PS6OOQFPshkMfe3BFjmwoN4xxJOo4gNZljV93HJbKiJvoJRCChbOWUErFyNhedS30RVUWI3CPT2lST7FYOtQkNDqSB3FYCKP9/BN6C+C1DW5/jtWfxfDmqMAgBIMEQwRJUKgOASKj0Bt54+Q7m7YrAVAqiGABD2rxDnT4ICSQT9hfQmlM/zJdaY9gk4R/ulx4o6pJFUAKJ2JPWjIc/VhaAPoRDD6XS2gkUdjrxaJW49UHp3iRC6iodwlzlTArPZCSvsUpR0WuHMZuGK6+grAOqTBk1pOVcHqD/CFuwmAB4poJqCmqQAiCFkN5mQLtLib/2A2Jrq2y0CIJgWs9msuuJbt24tXL9+/QYDJ08SRelVWZZSaEUdyL86XTmE0xWuqMfafrmg99cUhQDFYkKdVBrq4HyJpUewT8eFhYVULxxyLBxntWCrDk2m60qeLVxRXmRkpOqZ0D5dd7WAZ9F4gg+qY5WlGwU1TQGQ9XWHEWl4a6WC4Q2gAAIhS+70WiNhskFAVW9h0KBRDQYMGFAbjHyhbv06/42oFfFBbGxsPix4Ft6GLJtq3YhkvJfi6s1XHrT3Vj/LwS0utfBVQEHZ6jOgeEh7oBBONpupX0XJ6qtUDJVVkeeEc2ojoJvP8xlQcn8g/RNh0S9aFkM5qFEKAMxJHoAqAZUxIs7B4lH/eX0BhmwKwXO35ToLHoDae9DIOe43C+ZPhw4aOig9Pd26ZMmSzOnTpzskRVoqOsWFcOcz6TqULfIQTBLyit6u7HujfLekEXRTL0q13gSDoDYrIKKQnE5ayevPwT+KQp395HIVJ53QdnUFvQ+9b5l9+iqyH5t/REVFrWOuf+WoMQoAzEFuqFtMCOahFmZdQ4CpU6fSmnixSKWz+VQEPJsUAC1woU4OAoYu4njhTl4QPjUJpplxcXG30Pp98Ah+DygMeKmB0OB3us5ut+M2SfXvK3JwqGzQQL0N6R1pt0olQJe7FABvUi08sujToDoXSlkeuvy4WoFnqe8Dxe6qsyIow0049STCorX05aXkSoaKUKM8AIAGpFQgGmUAGSkqKNa1bo4dO9YQj75ZO6wUuI6s+LEtW7aok1iGRYZ9wQn8c9g9CrYfC5u7MONC1t+HDRvWNGFbQuHSrSXLYIlFRedESVK7/VYm1VQHEBpXPVR4KS4j5SMi1DgIgaLVi2kosno9nH1OFE3YFy6pJ9xT2aN1BdFHIMEHnb8hvYawZvLatWt/YJbfPdQoBQAGIaaoWgGAheEq6NYGQEJhs9nuwfPdmo8Q1+fDulGvQZXWoqIiJTQ0aJXRLDyIV5iGcpCvvI5Yf/mIESPGx8fH08IjBifu4QX+SUkSPxQl8STKueRdXYdkptUd4PJrXMAzZFjTNIfDMQPC/0xYWJj6Gc0pOa1k5aEa1PtgfC8ReDqn7ZYiLy+PXA23R2ISSfSOrkReDRIBJIkO5JGlv4i0G8qJRlz+TRCEUYj3P1i5ciWb+NMD1CgFQEyIVC7DlwWuoVZu3doAxo8f3xxMOgZWt9JRay5ZxPZ0QEDAIfUAsNvF+y9cyHjb4VDqCSbhQ17maFajT+AJNFdE+QNbUdGc0aNH3xcREWFZv379vqh69V5BuPAXCMhqPFcdf4BXoo0L6isiqQ+87Bx9rryAtAR0PAaLOj0pKSnVYrFYRw4bOcReWDQClxihiGw4D0/lT4VKhSLv0sKA+vXrI1sdiFVl3UO4ncXFxZuhNN7Kycl5Mzs7+5+5ubnTkV7H/ivIfwFC/zfU5TjU0chatWo9gXeev3r16j+Y1fccNUoBAG4xCJga8sPRJKJXMLOngPBbwbwPQzZu0bLcwR4ITWm/dVi3OrBuEw2KuAT27yXFqBTUa1D3ZZjHRyGDP0Gs7hMdzgVZGRn/Gjx4cAcIin3NmjVfQfgn2+32p7H9EUldHksTdvrKocor9kk4KY+ErxCeymakx3HuaQj+dxcvXnQOHz68G4TyfYmTPobJ7wyx/1oW5YT8/HwUJl8ycxLuu4KnQA89w614HNc5QFtCr169pn777bfTvvvuu+nY/hPpX99///372H6wYcOGz+Dmf7l8+fIj8+fPpxmCq1QsDOWjpoUAYim3VwKSDJgyy7Rp03xSANTwB4s1Ggz9GCxWlUNW8VSKZwtx/fezZs0q7bdOhpYEC654GyQIvmFJ+tn0cZZAy85QozCB4wVaIQgKg5sk8PwKe7H9ybi4uIYQlMxNmzYtwr3jYDXfQNkHkGTQor4huddUPvLIt96LMl6Fonlsy5Yt62jMP5TXTbCwz+Paz3HZX3D9GTzjH0HGoAk8x1/Iz8t4FrXZvmyNUrnabilat26tzsXgZt3z8DaM2mrErkT3uRKDjqhhIYARIYA6O00VUHi42gHR0dFeKwDE5UF79+59CLuvQ+CqnLraJRsQskNms/lH9UADhcAkPOoVvCIYTUI3/HLv2Ypt8/Ilw80hYSHLwoMi4p1O8V28pQXn30bQPH/EsBHDR44cGUTz+nXp0mUGBOthiNBnEPZ0lCbDOxCddsdxBPs0U/CEjh07fkSdZiaOGBE2asSo0QX5RQt5gzBVkRSrKMozg4IiHgoKCVqdL+X3dSiOTw2c8iQoD3fJJVGIsq/40gIvghSY2y3ypAS0XYZqRg3zACStEbByuS4JjzlLSkqKxwqAZsyB9W0Dyz8dZbwFwXJrNWJcS5aYBgytDwkJuWRIrcNRvBsGdDvJLJFPggalEmw0GQfi6NOsi1nvnzt/LqRl65bviZI41qBwq5C6yAZljuyU/2/IkCG3pKamGlasWLE9IDDg73Dnn4JHcJy380eL7bYnQsLCXkbIsIvm/hsyJK53pqjMRjkf4UExCPITFE6IDw0Nfjcj42wDvNd/QeNMJJr12ET0EO1QXE7QT58jaZXhS4B6dNsDwCX0iZIpgKsE3Xu7+TPatm3XHqI2EPxa6bf4kjCZ/7Vu3ahv3FlJBq4+37Nnz9DGjRu337NnTzys4Ktw1QdDSNVGPxKQqkCyQQKE9CZi2wtatgp4E2czMi7+CAWWBeGohyxauZeEhFRVMIrvgufdlZ2dFxJsCtoeFB60WnJI+xA51IPpHcAb+PscDjG0+83dzrRs2fI84uY0KITcg0cP5qWlpZ0aOnSoVK9evbb5ufnPoLypKLcLxPonSO20gCDrnOLiQoutyPE3q8XyMi/wPSiccb0T6AbJEi0E8onVan27U6dO+y5fLPTOO+/kzp071wv33aXRXSFwnnoTfQf6tmtZDNUIjy3c9YyhQ+PiBIGbD96lVW+03PIhy9xGXDMTBslhNCoCjJIJjIkkgY9N1IfebDTSsTEETnpju93RBiF1B543NMV1tFyWW4LvAgQ7By75C926dftMi3+vAK09AMvdCQL3iNFoGmwUhHqQQPUcdf8FzQ54Cb+D5o+DQq0b4EmYIHgjEDU8itOtkXaDqAUI0xNXr16tji5EmfUEgzAc5hvhgRINug+aTaYFtUJqrT6fd56THMpIvMV43shH43WM5DO66g50XERajwqZHxYWtmvRokXlrsOP67lBgwa9gNDmTdRJpR2scK0Tyuw1eCvv4doqPQYG31DDFMDQoRwnLIQSCHUxccXg7bgkD0yPS8klBZvzHBQB9SamNkKaNoy2BiOuoU+GWl1W6TCUgmhAEar7DK9hAQTkJQim2uGmMkBog+HG38XzxseNAncHzwvBqgrQFA4UUR6ine+ckvxxVFTkT7RgCadwj8D4jsbpMMTuP8LFXyTaRQnPfNTAc3cIvJANcpbJBnEhLPn5goKCPghfJvEcfyvuC9CKpgCE6C2A4P8E+mmhla+TkpKoJb5C4Dpu4MCBz+BZ75D21LLLBa6lyTunwQt6G+/jfmUyeIUaFWuBucBQJLvuGBbZAv6rgy2tiFsboh6J28OwhVsvh2AbhG0gtggnFIgHlemZwSKBJVpg1Wk9vpnuCD8hISGhYOPGjRvMZuNEUZJecTilZAmWU306jCac7FCjyTjYYjR+lpWR9RaeE1CrTq1pFpN5HAhNUmSul5E3fWqxWueDiB64aZ3RbImP7tDubTjgkXl5Bf+BFZ4DBXAPYowAKpP+JFmiFYh3guZXYPEfW79+fWJVwk/A8xXcR42AVQo01QeS7iMxGcpHjVIAMN4i/a8degCXcJcn4H+ec1lJTwDhpxVvp0OgD2pZboPWyOvcufNsQTBNcNgdH0DGTkKRgBjVThs4gasvCMbJkigvyTif8UR+cf7h9h3a/5UT+CnwEH6XJPEn3mia1LhJwykFBTkn9+za93eDYFhssZgegqWuRc/QBFIBjSeQ/gPLT18LZi9evPgMCbZKiBsAXe72BESx3tQkgzeoURU9uH//B4wWy1KO5yO0rGsJEqpfEfe/tGXLlh/ouCTbO/Tu3dsaFBR0Myz3Y7DctDBIyTtqpcqKbIPw/gyv5tOAgOCteDYHl1wklzwzM3MQ9um+LjytIlTGQ4LgZuO+zbh+Hva30zTn2imP0Ldv34mg7wM8o9L+EHiGjGveXrVq1TToAdazr5pR00IAv1B4oIMG2GyF8D37xRdf+Cz8hG3bttk2b978AwT5acjQCw6H4xcIrkNV8UgkeIit7+Y440eFhYVzQcN9uOb+vLy8jxHzz8A5at0vFX6UYQONP6GM5wMDA5+msr0VfoLLqldl3Ok6KEVh5MiRWg5DdaJmhQC8azrtawMIHQlWDtKnSE+uW7fuV/C7z8JfFtSOMHbs2AUQ3PEQpLexPYpnqXMEEKAIIiHswxDbz0bOXOzT14RQooKSUjLu5gCEfxquHd+pU6cFy5cvz1Bv9gF4T7fGAhDwfL9Q1DUBNUoBcLLWmuUWG+oLyCCNYtsO5n4GFvUfGzZsOKqd0h2wntKmTZuONGrU6G0I/kMQ5s/w3PMuJUAfDLAXAmOMhP9Lsqmh7owkSnNxfTw8gxlr165Nq+iTpDegT5WqZON5tK1AymmZYktaWlqN4s1rhZpVyYpY0hOwmuxLqYCVAQk+hG83dt8IDQ2dAIu6+GrNT08TYiQmJv4CF/950PBXCPZXoKeorCASJOTZbfYtDtE5ObJOrZc2btz4O0IKt4fvuoOIiAhy/jlFbaNEKmmrVDURoWzdQSdZmjdvXk2/EkNZ1KhKhmW8Cw7uSrx2HXffXDWQGnPSPqE8QXcB5wg0938GtnsgdFssFsvWe++9N23SpEnXbIYa0MKNGjWqEeL/EXDtHxY4vh3qgIKD/U7RuQiXrIbg0yrGFb+cDxg3etx9efnZT6MWjUi00oGI6pRkg+JE1EHdhIlGClVo5uYvwsPDE9jw3upHjVIAT02efMeZ9PMrwXT1iNmQRYNUsEu9enjYJEgJR2tfkZ1SaFadEnsFkLVSt8iHJlDvBYhBqWtgMSxsDo7PG43GE2DgfUFBQXvgUh8CE5O1rxah8gYjRoygdfI7Sk7ncDiAdquRX8tbrQerW9imTJliOXfuXBAUomw2mxXQIIcWF8u2sDCZBgvRNVFRUTIt4pqcnEy0XNP2mpqCGqUAwISN0tPTh2E3DMkJgXVA4EVeUZyywokQU6fCK5TvlMGp4EJJAcNS4yGZSomm4TSo1kqdmkYUDWKgyexs0LRBMRg6D9fk9enTp+haWnp3Qd2K4ZYrbN48BgYGBgYGBgYGBgYGBgYGBgYGBgYGBgYGBgYGBgYGBgYGBgYGBgYGBgYGBgYGBgYGBgYGBgYGBgYGBgYGBgYGBgYGBga/gMHw/3Umr17OgigtAAAAAElFTkSuQmCC;fontStyle=1;labelBorderColor=default;fontSize=17;" vertex="1" parent="1">
          <mxGeometry x="250" y="136" width="122" height="88.64" as="geometry" />
        </mxCell>
        <mxCell id="-prXrG9tCKA0eA2Kq8v5-7" style="edgeStyle=orthogonalEdgeStyle;rounded=0;orthogonalLoop=1;jettySize=auto;html=1;shape=link;fontStyle=1;labelBorderColor=default;fontSize=17;" edge="1" parent="1" source="-prXrG9tCKA0eA2Kq8v5-5" target="-prXrG9tCKA0eA2Kq8v5-2">
          <mxGeometry relative="1" as="geometry" />
        </mxCell>
        <mxCell id="-prXrG9tCKA0eA2Kq8v5-10" value="interaction&amp;nbsp;" style="edgeLabel;html=1;align=center;verticalAlign=middle;resizable=0;points=[];fontStyle=1;labelBorderColor=default;fontSize=17;" vertex="1" connectable="0" parent="-prXrG9tCKA0eA2Kq8v5-7">
          <mxGeometry x="-0.0989" y="-1" relative="1" as="geometry">
            <mxPoint as="offset" />
          </mxGeometry>
        </mxCell>
        <mxCell id="-prXrG9tCKA0eA2Kq8v5-5" value="CSP" style="ellipse;shape=cloud;whiteSpace=wrap;html=1;fontStyle=1;horizontal=1;fontSize=29;labelBorderColor=default;" vertex="1" parent="1">
          <mxGeometry x="30" y="203" width="120" height="86" as="geometry" />
        </mxCell>
        <mxCell id="-prXrG9tCKA0eA2Kq8v5-13" style="edgeStyle=orthogonalEdgeStyle;rounded=0;orthogonalLoop=1;jettySize=auto;html=1;entryX=0.5;entryY=1;entryDx=0;entryDy=0;shape=flexArrow;fontStyle=1;labelBorderColor=default;fontSize=17;" edge="1" parent="1" source="-prXrG9tCKA0eA2Kq8v5-12" target="-prXrG9tCKA0eA2Kq8v5-1">
          <mxGeometry relative="1" as="geometry" />
        </mxCell>
        <mxCell id="-prXrG9tCKA0eA2Kq8v5-14" value="Forward to&amp;nbsp;" style="edgeLabel;html=1;align=center;verticalAlign=middle;resizable=0;points=[];fontStyle=1;labelBorderColor=default;fontSize=17;" vertex="1" connectable="0" parent="-prXrG9tCKA0eA2Kq8v5-13">
          <mxGeometry x="0.2296" y="-1" relative="1" as="geometry">
            <mxPoint as="offset" />
          </mxGeometry>
        </mxCell>
        <mxCell id="-prXrG9tCKA0eA2Kq8v5-12" value="BC" style="shape=image;html=1;verticalAlign=top;verticalLabelPosition=bottom;labelBackgroundColor=#ffffff;imageAspect=0;aspect=fixed;image=https://cdn1.iconfinder.com/data/icons/cryptocurrency-blockchain-fintech-free/32/Cryptocurrency_blockchain_data-37-128.png;fontStyle=1;labelBorderColor=default;fontSize=17;" vertex="1" parent="1">
          <mxGeometry x="243" y="348" width="91" height="91" as="geometry" />
        </mxCell>
        <mxCell id="-prXrG9tCKA0eA2Kq8v5-15" style="edgeStyle=orthogonalEdgeStyle;rounded=0;orthogonalLoop=1;jettySize=auto;html=1;entryX=0.469;entryY=1.008;entryDx=0;entryDy=0;entryPerimeter=0;shape=flexArrow;fontStyle=1;labelBorderColor=default;fontSize=17;" edge="1" parent="1" source="-prXrG9tCKA0eA2Kq8v5-12" target="-prXrG9tCKA0eA2Kq8v5-5">
          <mxGeometry relative="1" as="geometry" />
        </mxCell>
        <mxCell id="-prXrG9tCKA0eA2Kq8v5-16" value="Forward to&amp;nbsp;" style="edgeLabel;html=1;align=center;verticalAlign=middle;resizable=0;points=[];fontStyle=1;labelBorderColor=default;fontSize=17;" vertex="1" connectable="0" parent="-prXrG9tCKA0eA2Kq8v5-15">
          <mxGeometry x="-0.0523" y="3" relative="1" as="geometry">
            <mxPoint as="offset" />
          </mxGeometry>
        </mxCell>
      </root>
    </mxGraphModel>
  </diagram>
</mxfile>
